<?xml version="1.0" encoding="UTF-8"?>
<svg xmlns="http://www.w3.org/2000/svg" xmlns:xlink="http://www.w3.org/1999/xlink" width="129px" height="40px" viewBox="0 0 128 40" version="1.1">
<g id="surface1">
<path style=" stroke:none;fill-rule:nonzero;fill:rgb(13.333334%,12.156863%,12.156863%);fill-opacity:1;" d="M 4.972656 0.625 L 122.285156 0.625 C 124.6875 0.625 126.632812 2.582031 126.632812 5 L 126.632812 35 C 126.632812 37.417969 124.6875 39.375 122.285156 39.375 L 4.972656 39.375 C 2.570312 39.375 0.621094 37.417969 0.621094 35 L 0.621094 5 C 0.621094 2.582031 2.570312 0.625 4.972656 0.625 Z M 4.972656 0.625 "/>
<path style=" stroke:none;fill-rule:nonzero;fill:rgb(100%,100%,100%);fill-opacity:1;" d="M 26.710938 19.765625 C 26.683594 16.730469 29.113281 15.257812 29.222656 15.1875 C 27.847656 13.113281 25.71875 12.832031 24.96875 12.808594 C 23.179688 12.617188 21.441406 13.917969 20.53125 13.917969 C 19.601562 13.917969 18.195312 12.828125 16.683594 12.859375 C 14.734375 12.890625 12.914062 14.058594 11.914062 15.867188 C 9.851562 19.558594 11.390625 24.980469 13.367188 27.964844 C 14.355469 29.425781 15.511719 31.054688 17.019531 31 C 18.5 30.9375 19.054688 30.023438 20.835938 30.023438 C 22.605469 30.023438 23.125 31 24.664062 30.960938 C 26.253906 30.9375 27.253906 29.496094 28.207031 28.019531 C 29.347656 26.347656 29.808594 24.695312 29.824219 24.613281 C 29.785156 24.601562 26.742188 23.398438 26.710938 19.765625 Z M 26.710938 19.765625 "/>
<path style=" stroke:none;fill-rule:nonzero;fill:rgb(100%,100%,100%);fill-opacity:1;" d="M 23.800781 10.847656 C 24.59375 9.816406 25.140625 8.417969 24.988281 7 C 23.835938 7.050781 22.398438 7.824219 21.566406 8.828125 C 20.835938 9.714844 20.179688 11.167969 20.347656 12.535156 C 21.640625 12.632812 22.96875 11.859375 23.800781 10.847656 Z M 23.800781 10.847656 "/>
<path style=" stroke:none;fill-rule:nonzero;fill:rgb(100%,100%,100%);fill-opacity:1;" d="M 49.988281 30.15625 L 47.957031 30.15625 L 46.84375 26.640625 L 42.972656 26.640625 L 41.914062 30.15625 L 39.933594 30.15625 L 43.769531 18.179688 L 46.136719 18.179688 Z M 46.507812 25.164062 L 45.5 22.035156 C 45.394531 21.714844 45.195312 20.964844 44.902344 19.777344 L 44.863281 19.777344 C 44.746094 20.289062 44.558594 21.039062 44.300781 22.035156 L 43.3125 25.164062 Z M 46.507812 25.164062 "/>
<path style=" stroke:none;fill-rule:nonzero;fill:rgb(100%,100%,100%);fill-opacity:1;" d="M 59.847656 25.730469 C 59.847656 27.199219 59.449219 28.363281 58.660156 29.214844 C 57.953125 29.972656 57.078125 30.351562 56.027344 30.351562 C 54.898438 30.351562 54.085938 29.941406 53.589844 29.125 L 53.554688 29.125 L 53.554688 33.675781 L 51.648438 33.675781 L 51.648438 24.363281 C 51.648438 23.441406 51.625 22.492188 51.578125 21.519531 L 53.253906 21.519531 L 53.363281 22.890625 L 53.398438 22.890625 C 54.035156 21.859375 55 21.34375 56.292969 21.34375 C 57.308594 21.34375 58.152344 21.746094 58.828125 22.550781 C 59.507812 23.355469 59.847656 24.417969 59.847656 25.730469 Z M 57.902344 25.800781 C 57.902344 24.960938 57.714844 24.269531 57.335938 23.722656 C 56.925781 23.152344 56.371094 22.871094 55.675781 22.871094 C 55.207031 22.871094 54.777344 23.027344 54.394531 23.339844 C 54.011719 23.65625 53.761719 24.066406 53.644531 24.578125 C 53.585938 24.816406 53.554688 25.007812 53.554688 25.160156 L 53.554688 26.601562 C 53.554688 27.230469 53.75 27.761719 54.132812 28.191406 C 54.515625 28.625 55.011719 28.84375 55.625 28.84375 C 56.34375 28.84375 56.902344 28.5625 57.300781 28.007812 C 57.703125 27.449219 57.902344 26.714844 57.902344 25.800781 Z M 57.902344 25.800781 "/>
<path style=" stroke:none;fill-rule:nonzero;fill:rgb(100%,100%,100%);fill-opacity:1;" d="M 69.722656 25.730469 C 69.722656 27.199219 69.328125 28.363281 68.535156 29.214844 C 67.828125 29.972656 66.953125 30.351562 65.90625 30.351562 C 64.773438 30.351562 63.960938 29.941406 63.464844 29.125 L 63.429688 29.125 L 63.429688 33.675781 L 61.523438 33.675781 L 61.523438 24.363281 C 61.523438 23.441406 61.5 22.492188 61.453125 21.519531 L 63.128906 21.519531 L 63.238281 22.890625 L 63.273438 22.890625 C 63.90625 21.859375 64.875 21.34375 66.167969 21.34375 C 67.183594 21.34375 68.027344 21.746094 68.707031 22.550781 C 69.382812 23.355469 69.722656 24.417969 69.722656 25.730469 Z M 67.777344 25.800781 C 67.777344 24.960938 67.589844 24.269531 67.210938 23.722656 C 66.796875 23.152344 66.246094 22.871094 65.550781 22.871094 C 65.078125 22.871094 64.652344 23.027344 64.269531 23.339844 C 63.886719 23.65625 63.636719 24.066406 63.519531 24.578125 C 63.460938 24.816406 63.429688 25.007812 63.429688 25.160156 L 63.429688 26.601562 C 63.429688 27.230469 63.621094 27.761719 64.003906 28.191406 C 64.386719 28.625 64.882812 28.84375 65.496094 28.84375 C 66.214844 28.84375 66.773438 28.5625 67.175781 28.007812 C 67.578125 27.449219 67.777344 26.714844 67.777344 25.800781 Z M 67.777344 25.800781 "/>
<path style=" stroke:none;fill-rule:nonzero;fill:rgb(100%,100%,100%);fill-opacity:1;" d="M 80.761719 26.796875 C 80.761719 27.816406 80.410156 28.644531 79.703125 29.285156 C 78.929688 29.984375 77.847656 30.335938 76.460938 30.335938 C 75.179688 30.335938 74.152344 30.085938 73.375 29.589844 L 73.816406 27.988281 C 74.652344 28.5 75.574219 28.753906 76.574219 28.753906 C 77.292969 28.753906 77.851562 28.589844 78.253906 28.265625 C 78.652344 27.9375 78.851562 27.5 78.851562 26.957031 C 78.851562 26.46875 78.6875 26.058594 78.359375 25.726562 C 78.03125 25.394531 77.480469 25.085938 76.714844 24.800781 C 74.632812 24.019531 73.589844 22.875 73.589844 21.367188 C 73.589844 20.382812 73.953125 19.574219 74.683594 18.949219 C 75.414062 18.320312 76.386719 18.003906 77.601562 18.003906 C 78.683594 18.003906 79.582031 18.195312 80.300781 18.574219 L 79.824219 20.136719 C 79.152344 19.769531 78.394531 19.585938 77.546875 19.585938 C 76.875 19.585938 76.351562 19.753906 75.976562 20.085938 C 75.65625 20.382812 75.5 20.742188 75.5 21.167969 C 75.5 21.640625 75.679688 22.035156 76.046875 22.34375 C 76.363281 22.625 76.941406 22.933594 77.777344 23.265625 C 78.800781 23.679688 79.554688 24.164062 80.039062 24.722656 C 80.523438 25.277344 80.761719 25.96875 80.761719 26.796875 Z M 80.761719 26.796875 "/>
<path style=" stroke:none;fill-rule:nonzero;fill:rgb(100%,100%,100%);fill-opacity:1;" d="M 87.070312 22.960938 L 84.964844 22.960938 L 84.964844 27.152344 C 84.964844 28.21875 85.335938 28.753906 86.082031 28.753906 C 86.421875 28.753906 86.703125 28.722656 86.925781 28.664062 L 86.980469 30.121094 C 86.605469 30.261719 86.109375 30.332031 85.496094 30.332031 C 84.742188 30.332031 84.15625 30.101562 83.730469 29.640625 C 83.304688 29.175781 83.09375 28.402344 83.09375 27.3125 L 83.09375 22.957031 L 81.839844 22.957031 L 81.839844 21.519531 L 83.09375 21.519531 L 83.09375 19.9375 L 84.96875 19.367188 L 84.96875 21.519531 L 87.070312 21.519531 Z M 87.070312 22.960938 "/>
<path style=" stroke:none;fill-rule:nonzero;fill:rgb(100%,100%,100%);fill-opacity:1;" d="M 96.558594 25.765625 C 96.558594 27.09375 96.179688 28.183594 95.425781 29.035156 C 94.636719 29.914062 93.585938 30.351562 92.28125 30.351562 C 91.019531 30.351562 90.015625 29.933594 89.269531 29.089844 C 88.523438 28.25 88.148438 27.1875 88.148438 25.910156 C 88.148438 24.570312 88.53125 23.476562 89.304688 22.621094 C 90.074219 21.769531 91.113281 21.34375 92.421875 21.34375 C 93.683594 21.34375 94.695312 21.761719 95.460938 22.605469 C 96.191406 23.421875 96.558594 24.476562 96.558594 25.765625 Z M 94.578125 25.828125 C 94.578125 25.03125 94.410156 24.347656 94.066406 23.78125 C 93.664062 23.089844 93.09375 22.746094 92.351562 22.746094 C 91.585938 22.746094 91.003906 23.09375 90.601562 23.78125 C 90.257812 24.351562 90.089844 25.042969 90.089844 25.863281 C 90.089844 26.660156 90.257812 27.34375 90.601562 27.914062 C 91.015625 28.601562 91.59375 28.945312 92.335938 28.945312 C 93.0625 28.945312 93.636719 28.59375 94.046875 27.894531 C 94.402344 27.316406 94.578125 26.625 94.578125 25.828125 Z M 94.578125 25.828125 "/>
<path style=" stroke:none;fill-rule:nonzero;fill:rgb(100%,100%,100%);fill-opacity:1;" d="M 102.757812 23.207031 C 102.570312 23.171875 102.367188 23.15625 102.15625 23.15625 C 101.484375 23.15625 100.964844 23.410156 100.601562 23.921875 C 100.28125 24.371094 100.125 24.9375 100.125 25.625 L 100.125 30.15625 L 98.21875 30.15625 L 98.234375 24.238281 C 98.234375 23.242188 98.210938 22.335938 98.164062 21.519531 L 99.824219 21.519531 L 99.894531 23.171875 L 99.945312 23.171875 C 100.148438 22.605469 100.464844 22.148438 100.898438 21.804688 C 101.324219 21.496094 101.785156 21.339844 102.277344 21.339844 C 102.457031 21.339844 102.617188 21.355469 102.757812 21.375 C 102.757812 21.378906 102.757812 23.207031 102.757812 23.207031 Z M 102.757812 23.207031 "/>
<path style=" stroke:none;fill-rule:nonzero;fill:rgb(100%,100%,100%);fill-opacity:1;" d="M 111.289062 25.429688 C 111.289062 25.773438 111.265625 26.0625 111.21875 26.300781 L 105.496094 26.300781 C 105.519531 27.152344 105.796875 27.804688 106.328125 28.257812 C 106.808594 28.65625 107.433594 28.859375 108.199219 28.859375 C 109.046875 28.859375 109.820312 28.722656 110.515625 28.449219 L 110.8125 29.78125 C 110 30.140625 109.042969 30.316406 107.933594 30.316406 C 106.605469 30.316406 105.558594 29.921875 104.796875 29.136719 C 104.039062 28.347656 103.660156 27.289062 103.660156 25.964844 C 103.660156 24.660156 104.011719 23.574219 104.71875 22.710938 C 105.460938 21.789062 106.460938 21.324219 107.722656 21.324219 C 108.960938 21.324219 109.894531 21.789062 110.53125 22.710938 C 111.035156 23.445312 111.289062 24.351562 111.289062 25.429688 Z M 109.46875 24.933594 C 109.484375 24.363281 109.359375 23.871094 109.097656 23.457031 C 108.769531 22.921875 108.261719 22.65625 107.578125 22.65625 C 106.957031 22.65625 106.449219 22.917969 106.0625 23.4375 C 105.742188 23.855469 105.554688 24.351562 105.496094 24.929688 Z M 109.46875 24.933594 "/>
<path style=" stroke:none;fill-rule:nonzero;fill:rgb(100%,100%,100%);fill-opacity:1;" d="M 40.109375 13.179688 L 40.917969 12.96875 C 40.976562 13.28125 41.140625 13.597656 41.40625 13.910156 C 41.671875 14.222656 42.027344 14.378906 42.46875 14.378906 C 42.914062 14.378906 43.269531 14.265625 43.527344 14.03125 C 43.789062 13.800781 43.917969 13.523438 43.917969 13.195312 C 43.917969 12.839844 43.78125 12.558594 43.507812 12.351562 C 43.234375 12.140625 42.859375 12.035156 42.386719 12.035156 L 41.980469 12.035156 L 41.980469 11.289062 C 42.371094 11.289062 42.671875 11.269531 42.878906 11.226562 C 43.085938 11.179688 43.265625 11.0625 43.425781 10.878906 C 43.585938 10.691406 43.664062 10.476562 43.664062 10.242188 C 43.664062 9.960938 43.554688 9.714844 43.335938 9.507812 C 43.121094 9.296875 42.828125 9.195312 42.457031 9.195312 C 42.136719 9.195312 41.859375 9.277344 41.628906 9.441406 C 41.402344 9.601562 41.242188 9.816406 41.15625 10.085938 C 41.070312 10.351562 41.027344 10.550781 41.027344 10.683594 L 40.210938 10.5 C 40.414062 9.132812 41.164062 8.449219 42.46875 8.449219 C 43.09375 8.449219 43.589844 8.625 43.957031 8.976562 C 44.324219 9.324219 44.507812 9.730469 44.507812 10.199219 C 44.507812 10.800781 44.226562 11.265625 43.660156 11.597656 C 43.984375 11.6875 44.257812 11.875 44.476562 12.15625 C 44.699219 12.433594 44.808594 12.769531 44.808594 13.160156 C 44.808594 13.710938 44.59375 14.175781 44.167969 14.550781 C 43.742188 14.921875 43.175781 15.109375 42.472656 15.109375 C 41.261719 15.109375 40.472656 14.464844 40.109375 13.179688 Z M 40.109375 13.179688 "/>
<path style=" stroke:none;fill-rule:nonzero;fill:rgb(100%,100%,100%);fill-opacity:1;" d="M 48.792969 14.425781 C 48.503906 14.671875 48.222656 14.847656 47.949219 14.953125 C 47.683594 15.054688 47.394531 15.105469 47.085938 15.105469 C 46.574219 15.105469 46.183594 14.980469 45.910156 14.730469 C 45.636719 14.480469 45.5 14.160156 45.5 13.769531 C 45.5 13.539062 45.550781 13.332031 45.652344 13.144531 C 45.757812 12.953125 45.890625 12.804688 46.058594 12.6875 C 46.226562 12.574219 46.417969 12.488281 46.625 12.429688 C 46.78125 12.386719 47.015625 12.347656 47.324219 12.308594 C 47.960938 12.234375 48.429688 12.144531 48.726562 12.039062 C 48.730469 11.929688 48.730469 11.859375 48.730469 11.832031 C 48.730469 11.507812 48.65625 11.28125 48.507812 11.148438 C 48.308594 10.972656 48.011719 10.882812 47.613281 10.882812 C 47.242188 10.882812 46.96875 10.949219 46.792969 11.078125 C 46.617188 11.207031 46.488281 11.4375 46.402344 11.769531 L 45.632812 11.664062 C 45.703125 11.332031 45.820312 11.066406 45.980469 10.863281 C 46.140625 10.660156 46.371094 10.503906 46.675781 10.394531 C 46.976562 10.28125 47.328125 10.226562 47.726562 10.226562 C 48.125 10.226562 48.445312 10.273438 48.691406 10.367188 C 48.941406 10.460938 49.121094 10.582031 49.238281 10.722656 C 49.355469 10.863281 49.4375 11.042969 49.484375 11.261719 C 49.511719 11.394531 49.523438 11.636719 49.523438 11.988281 L 49.523438 13.042969 C 49.523438 13.78125 49.539062 14.246094 49.570312 14.441406 C 49.605469 14.636719 49.671875 14.820312 49.773438 15 L 48.949219 15 C 48.871094 14.835938 48.816406 14.644531 48.792969 14.425781 Z M 48.726562 12.65625 C 48.441406 12.773438 48.015625 12.875 47.445312 12.957031 C 47.121094 13.003906 46.890625 13.054688 46.757812 13.113281 C 46.625 13.171875 46.519531 13.257812 46.449219 13.375 C 46.375 13.484375 46.339844 13.609375 46.339844 13.746094 C 46.339844 13.957031 46.417969 14.132812 46.574219 14.273438 C 46.734375 14.414062 46.96875 14.484375 47.273438 14.484375 C 47.574219 14.484375 47.84375 14.417969 48.082031 14.289062 C 48.316406 14.152344 48.492188 13.96875 48.601562 13.738281 C 48.6875 13.558594 48.726562 13.296875 48.726562 12.949219 Z M 48.726562 12.65625 "/>
<path style=" stroke:none;fill-rule:nonzero;fill:rgb(100%,100%,100%);fill-opacity:1;" d="M 50.75 10.332031 L 52.5625 10.332031 C 53.007812 10.332031 53.339844 10.371094 53.554688 10.445312 C 53.773438 10.519531 53.960938 10.65625 54.113281 10.855469 C 54.273438 11.054688 54.351562 11.292969 54.351562 11.570312 C 54.351562 11.792969 54.304688 11.988281 54.210938 12.15625 C 54.121094 12.320312 53.984375 12.457031 53.800781 12.570312 C 54.019531 12.644531 54.199219 12.78125 54.34375 12.984375 C 54.488281 13.183594 54.558594 13.417969 54.558594 13.695312 C 54.53125 14.136719 54.375 14.464844 54.089844 14.679688 C 53.804688 14.894531 53.386719 15 52.84375 15 L 50.75 15 Z M 51.539062 12.296875 L 52.375 12.296875 C 52.710938 12.296875 52.941406 12.28125 53.066406 12.246094 C 53.191406 12.210938 53.304688 12.140625 53.402344 12.035156 C 53.5 11.925781 53.550781 11.796875 53.550781 11.648438 C 53.550781 11.402344 53.464844 11.230469 53.289062 11.132812 C 53.117188 11.035156 52.820312 10.988281 52.402344 10.988281 L 51.539062 10.988281 Z M 51.539062 14.351562 L 52.574219 14.351562 C 53.019531 14.351562 53.324219 14.296875 53.488281 14.195312 C 53.65625 14.089844 53.742188 13.910156 53.753906 13.65625 C 53.753906 13.507812 53.703125 13.367188 53.609375 13.242188 C 53.511719 13.113281 53.386719 13.03125 53.230469 13 C 53.078125 12.964844 52.832031 12.949219 52.488281 12.949219 L 51.539062 12.949219 Z M 51.539062 14.351562 "/>
<path style=" stroke:none;fill-rule:nonzero;fill:rgb(100%,100%,100%);fill-opacity:1;" d="M 58.421875 14.425781 C 58.132812 14.671875 57.851562 14.847656 57.578125 14.953125 C 57.3125 15.054688 57.023438 15.105469 56.714844 15.105469 C 56.203125 15.105469 55.8125 14.980469 55.539062 14.730469 C 55.265625 14.480469 55.128906 14.160156 55.128906 13.769531 C 55.128906 13.539062 55.179688 13.332031 55.28125 13.144531 C 55.386719 12.953125 55.523438 12.804688 55.6875 12.6875 C 55.855469 12.574219 56.046875 12.488281 56.253906 12.429688 C 56.410156 12.386719 56.644531 12.347656 56.953125 12.308594 C 57.589844 12.234375 58.058594 12.144531 58.355469 12.039062 C 58.359375 11.929688 58.363281 11.859375 58.363281 11.832031 C 58.363281 11.507812 58.285156 11.28125 58.136719 11.148438 C 57.9375 10.972656 57.640625 10.882812 57.242188 10.882812 C 56.871094 10.882812 56.597656 10.949219 56.421875 11.078125 C 56.246094 11.207031 56.117188 11.4375 56.03125 11.769531 L 55.265625 11.664062 C 55.332031 11.332031 55.449219 11.066406 55.609375 10.863281 C 55.769531 10.660156 56 10.503906 56.304688 10.394531 C 56.605469 10.28125 56.957031 10.226562 57.355469 10.226562 C 57.753906 10.226562 58.074219 10.273438 58.320312 10.367188 C 58.570312 10.460938 58.75 10.582031 58.867188 10.722656 C 58.984375 10.863281 59.066406 11.042969 59.113281 11.261719 C 59.140625 11.394531 59.152344 11.636719 59.152344 11.988281 L 59.152344 13.042969 C 59.152344 13.78125 59.167969 14.246094 59.199219 14.441406 C 59.234375 14.636719 59.300781 14.820312 59.402344 15 L 58.578125 15 C 58.5 14.835938 58.445312 14.644531 58.421875 14.425781 Z M 58.355469 12.65625 C 58.070312 12.773438 57.644531 12.875 57.074219 12.957031 C 56.75 13.003906 56.519531 13.054688 56.386719 13.113281 C 56.253906 13.171875 56.148438 13.257812 56.078125 13.375 C 56.003906 13.484375 55.96875 13.609375 55.96875 13.746094 C 55.96875 13.957031 56.046875 14.132812 56.203125 14.273438 C 56.363281 14.414062 56.597656 14.484375 56.902344 14.484375 C 57.203125 14.484375 57.472656 14.417969 57.710938 14.289062 C 57.945312 14.152344 58.121094 13.96875 58.230469 13.738281 C 58.316406 13.558594 58.355469 13.296875 58.355469 12.949219 Z M 58.355469 12.65625 "/>
<path style=" stroke:none;fill-rule:nonzero;fill:rgb(100%,100%,100%);fill-opacity:1;" d="M 60.378906 10.332031 L 61.167969 10.332031 L 61.167969 12.273438 L 63.347656 12.273438 L 63.347656 10.332031 L 64.132812 10.332031 L 64.132812 15 L 63.347656 15 L 63.347656 12.929688 L 61.167969 12.929688 L 61.167969 15 L 60.378906 15 Z M 60.378906 10.332031 "/>
<path style=" stroke:none;fill-rule:nonzero;fill:rgb(100%,100%,100%);fill-opacity:1;" d="M 64.898438 10.332031 L 68.667969 10.332031 L 68.667969 10.988281 L 67.171875 10.988281 L 67.171875 15 L 66.390625 15 L 66.390625 10.988281 L 64.898438 10.988281 Z M 64.898438 10.332031 "/>
<path style=" stroke:none;fill-rule:nonzero;fill:rgb(100%,100%,100%);fill-opacity:1;" d="M 72.34375 14.425781 C 72.050781 14.671875 71.769531 14.847656 71.5 14.953125 C 71.230469 15.054688 70.941406 15.105469 70.632812 15.105469 C 70.125 15.105469 69.730469 14.980469 69.457031 14.730469 C 69.183594 14.480469 69.046875 14.160156 69.046875 13.769531 C 69.046875 13.539062 69.097656 13.332031 69.199219 13.144531 C 69.304688 12.953125 69.441406 12.804688 69.605469 12.6875 C 69.777344 12.574219 69.964844 12.488281 70.175781 12.429688 C 70.328125 12.386719 70.5625 12.347656 70.875 12.308594 C 71.507812 12.234375 71.976562 12.144531 72.277344 12.039062 C 72.28125 11.929688 72.28125 11.859375 72.28125 11.832031 C 72.28125 11.507812 72.207031 11.28125 72.058594 11.148438 C 71.855469 10.972656 71.558594 10.882812 71.164062 10.882812 C 70.792969 10.882812 70.519531 10.949219 70.339844 11.078125 C 70.167969 11.207031 70.035156 11.4375 69.953125 11.769531 L 69.183594 11.664062 C 69.253906 11.332031 69.367188 11.066406 69.527344 10.863281 C 69.6875 10.660156 69.921875 10.503906 70.222656 10.394531 C 70.527344 10.28125 70.878906 10.226562 71.277344 10.226562 C 71.671875 10.226562 71.992188 10.273438 72.242188 10.367188 C 72.488281 10.460938 72.671875 10.582031 72.789062 10.722656 C 72.902344 10.863281 72.984375 11.042969 73.03125 11.261719 C 73.058594 11.394531 73.070312 11.636719 73.070312 11.988281 L 73.070312 13.042969 C 73.070312 13.78125 73.085938 14.246094 73.121094 14.441406 C 73.15625 14.636719 73.222656 14.820312 73.320312 15 L 72.5 15 C 72.417969 14.835938 72.367188 14.644531 72.34375 14.425781 Z M 72.277344 12.65625 C 71.992188 12.773438 71.5625 12.875 70.992188 12.957031 C 70.667969 13.003906 70.441406 13.054688 70.304688 13.113281 C 70.171875 13.171875 70.070312 13.257812 69.996094 13.375 C 69.921875 13.484375 69.886719 13.609375 69.886719 13.746094 C 69.886719 13.957031 69.964844 14.132812 70.121094 14.273438 C 70.28125 14.414062 70.515625 14.484375 70.820312 14.484375 C 71.125 14.484375 71.394531 14.417969 71.628906 14.289062 C 71.867188 14.152344 72.039062 13.96875 72.148438 13.738281 C 72.234375 13.558594 72.277344 13.296875 72.277344 12.949219 Z M 72.277344 12.65625 "/>
<path style=" stroke:none;fill-rule:nonzero;fill:rgb(100%,100%,100%);fill-opacity:1;" d="M 77.101562 10.332031 L 77.101562 12.351562 C 77.351562 12.351562 77.527344 12.300781 77.628906 12.203125 C 77.730469 12.109375 77.878906 11.828125 78.074219 11.359375 C 78.257812 10.917969 78.421875 10.636719 78.566406 10.511719 C 78.710938 10.394531 78.9375 10.332031 79.25 10.332031 L 79.539062 10.332031 L 79.539062 10.988281 L 79.324219 10.984375 C 79.113281 10.984375 78.980469 11.015625 78.921875 11.074219 C 78.859375 11.140625 78.765625 11.332031 78.640625 11.652344 C 78.527344 11.957031 78.417969 12.167969 78.320312 12.285156 C 78.21875 12.402344 78.066406 12.507812 77.855469 12.605469 C 78.195312 12.695312 78.527344 13.011719 78.851562 13.554688 L 79.714844 15 L 78.851562 15 L 78.007812 13.554688 C 77.835938 13.261719 77.6875 13.070312 77.558594 12.976562 C 77.429688 12.886719 77.277344 12.84375 77.101562 12.84375 L 77.101562 15 L 76.296875 15 L 76.296875 12.84375 C 76.121094 12.84375 75.96875 12.886719 75.839844 12.976562 C 75.714844 13.066406 75.5625 13.257812 75.390625 13.554688 L 74.546875 15 L 73.683594 15 L 74.542969 13.554688 C 74.871094 13.011719 75.203125 12.695312 75.542969 12.605469 C 75.3125 12.496094 75.148438 12.378906 75.054688 12.253906 C 74.960938 12.125 74.820312 11.820312 74.636719 11.339844 C 74.570312 11.179688 74.503906 11.078125 74.429688 11.039062 C 74.355469 11.003906 74.242188 10.984375 74.09375 10.984375 C 74.054688 10.984375 73.980469 10.984375 73.863281 10.988281 L 73.863281 10.332031 L 73.972656 10.332031 C 74.273438 10.332031 74.488281 10.351562 74.609375 10.390625 C 74.734375 10.425781 74.84375 10.503906 74.941406 10.621094 C 75.039062 10.738281 75.167969 10.984375 75.324219 11.359375 C 75.519531 11.820312 75.664062 12.101562 75.761719 12.199219 C 75.863281 12.300781 76.042969 12.351562 76.296875 12.351562 L 76.296875 10.332031 Z M 77.101562 10.332031 "/>
<path style=" stroke:none;fill-rule:nonzero;fill:rgb(100%,100%,100%);fill-opacity:1;" d="M 80.28125 10.332031 L 81.066406 10.332031 L 81.066406 13.890625 L 83.246094 10.332031 L 84.09375 10.332031 L 84.09375 15 L 83.308594 15 L 83.308594 11.460938 L 81.128906 15 L 80.28125 15 Z M 80.28125 10.332031 "/>
<path style=" stroke:none;fill-rule:nonzero;fill:rgb(100%,100%,100%);fill-opacity:1;" d="M 84.855469 10.332031 L 88.625 10.332031 L 88.625 10.988281 L 87.128906 10.988281 L 87.128906 15 L 86.347656 15 L 86.347656 10.988281 L 84.855469 10.988281 Z M 84.855469 10.332031 "/>
<path style=" stroke:none;fill-rule:nonzero;fill:rgb(100%,100%,100%);fill-opacity:1;" d="M 89.375 10.332031 L 90.164062 10.332031 L 90.164062 13.890625 L 92.34375 10.332031 L 93.191406 10.332031 L 93.191406 15 L 92.402344 15 L 92.402344 11.460938 L 90.222656 15 L 89.375 15 Z M 89.375 10.332031 "/>
<path style=" stroke:none;fill-rule:nonzero;fill:rgb(100%,100%,100%);fill-opacity:1;" d="M 96.871094 10.332031 L 98.683594 10.332031 C 99.128906 10.332031 99.457031 10.371094 99.675781 10.445312 C 99.890625 10.519531 100.078125 10.65625 100.234375 10.855469 C 100.390625 11.054688 100.46875 11.292969 100.46875 11.570312 C 100.46875 11.792969 100.421875 11.988281 100.328125 12.15625 C 100.238281 12.320312 100.101562 12.457031 99.917969 12.570312 C 100.136719 12.644531 100.316406 12.78125 100.460938 12.984375 C 100.605469 13.183594 100.679688 13.417969 100.679688 13.695312 C 100.648438 14.136719 100.492188 14.464844 100.207031 14.679688 C 99.921875 14.894531 99.507812 15 98.960938 15 L 96.871094 15 Z M 97.65625 12.296875 L 98.496094 12.296875 C 98.828125 12.296875 99.058594 12.28125 99.183594 12.246094 C 99.308594 12.210938 99.421875 12.140625 99.519531 12.035156 C 99.621094 11.925781 99.667969 11.796875 99.667969 11.648438 C 99.667969 11.402344 99.582031 11.230469 99.40625 11.132812 C 99.234375 11.035156 98.941406 10.988281 98.519531 10.988281 L 97.65625 10.988281 Z M 97.65625 14.351562 L 98.691406 14.351562 C 99.136719 14.351562 99.441406 14.296875 99.609375 14.195312 C 99.773438 14.089844 99.863281 13.910156 99.871094 13.65625 C 99.871094 13.507812 99.824219 13.367188 99.726562 13.242188 C 99.628906 13.113281 99.503906 13.03125 99.351562 13 C 99.195312 12.964844 98.949219 12.949219 98.609375 12.949219 L 97.65625 12.949219 Z M 97.65625 14.351562 "/>
<path style="fill:none;stroke-width:1;stroke-linecap:butt;stroke-linejoin:miter;stroke:rgb(30.19608%,29.411766%,29.411766%);stroke-opacity:1;stroke-miterlimit:4;" d="M 4.001434 0.5 L 98.401337 0.5 C 100.334473 0.5 101.899841 2.065625 101.899841 4 L 101.899841 28 C 101.899841 29.934375 100.334473 31.5 98.401337 31.5 L 4.001434 31.5 C 2.068298 31.5 0.499786 29.934375 0.499786 28 L 0.499786 4 C 0.499786 2.065625 2.068298 0.5 4.001434 0.5 Z M 4.001434 0.5 " transform="matrix(1.242718,0,0,1.25,0,0)"/>
</g>
</svg>
